<svg width="50" height="50" viewBox="0 0 50 50" fill="none" xmlns="http://www.w3.org/2000/svg">
<path d="M25 50C38.8071 50 50 38.8071 50 25C50 11.1929 38.8071 0 25 0C11.1929 0 0 11.1929 0 25C0 38.8071 11.1929 50 25 50Z" fill="#0035F6"/>
<path d="M32.2287 35.4067C31.6305 35.6383 30.984 35.7541 30.2892 35.7541C29.5945 35.7541 29.0542 35.6286 28.6682 35.3778C28.2822 35.1269 27.9638 34.7506 27.7129 34.2488C27.3463 33.5154 26.9313 32.2707 26.4682 30.5146C26.005 28.7391 25.6384 26.7996 25.3682 24.6962C23.7471 29.8488 22.8208 33.3611 22.5892 35.233C21.7401 35.4646 20.9779 35.5804 20.3024 35.5804C19.2024 35.5804 18.3919 35.1848 17.8708 34.3935C17.3498 33.583 16.9734 32.5312 16.7419 31.2383C16.7419 31.1996 16.5971 30.3891 16.3077 28.8067C16.0182 27.2243 15.8059 26.1243 15.6708 25.5067C15.2269 23.2488 14.7638 21.3575 14.2813 19.833C13.8182 18.3085 13.1331 17.2664 12.2261 16.7067C12.4577 16.1278 12.8147 15.6743 13.2971 15.3462C13.7795 15.0181 14.32 14.8541 14.9182 14.8541C16.2498 14.8541 17.205 15.8575 17.784 17.8646C18.1892 19.2733 18.6716 21.6664 19.2313 25.0435C19.791 28.4014 20.2059 30.8041 20.4761 32.2514C22.6568 26.1532 23.7471 22.1199 23.7471 20.1514C23.7471 19.7462 23.6989 19.4664 23.6024 19.312C24.0077 18.8488 24.5769 18.6172 25.3103 18.6172C26.0629 18.6172 26.6419 18.8199 27.0471 19.2251C27.4716 19.6304 27.8094 20.2865 28.0603 21.1935C28.3111 22.0812 28.6585 23.8278 29.1024 26.433C29.5655 29.0383 29.9226 30.9778 30.1734 32.2514C30.9453 29.8199 31.5532 27.8611 31.9971 26.3751C32.4603 24.8891 32.9331 23.0172 33.4155 20.7593C33.9173 18.5014 34.1682 16.6778 34.1682 15.2883C34.1682 15.0374 34.1585 14.8541 34.1392 14.7383C34.3901 14.6996 34.8147 14.6804 35.4129 14.6804C36.0111 14.6804 36.5322 14.8733 36.9761 15.2593C37.4392 15.626 37.6708 16.2243 37.6708 17.0541C37.6708 17.8839 37.3621 19.2733 36.7445 21.2225C36.1463 23.1717 35.3647 25.5453 34.3998 28.3435C33.4542 31.1225 32.7305 33.4769 32.2287 35.4067Z" fill="#A9FFF8"/>
</svg>
