<svg width="512" height="512" viewBox="0 0 512 512" fill="none" xmlns="http://www.w3.org/2000/svg">
<path d="M256 512C397.385 512 512 397.385 512 256C512 114.615 397.385 0 256 0C114.615 0 0 114.615 0 256C0 397.385 114.615 512 256 512Z" fill="#31FFCE"/>
<path d="M290.898 146.424L275.912 131.438L267.968 135.357L247.834 115.217L227.41 109.736L218.289 123.353L218.381 123.397C215.972 123.161 213.563 123.067 211.195 123.121C210.245 123.101 209.298 123.129 208.351 123.159L194.931 109.737L174.505 115.218L173.42 131.576C169.163 133.568 165.049 135.931 161.081 138.672L146.381 131.437L131.438 146.423L138.67 161.076C135.928 165.044 133.563 169.163 131.53 173.464L115.22 174.549L109.736 194.929L123.181 208.372C123.145 209.309 123.066 210.254 123.066 211.188C123.066 213.551 123.161 216.014 123.399 218.376L123.35 218.327L109.736 227.405L115.173 247.829L135.343 267.999L131.439 275.912V275.961L146.382 290.896H146.426L349.726 494.219C415.695 468.245 468.241 415.701 494.218 349.735L290.898 146.424Z" fill="#24C3A9"/>
<path d="M290.906 146.383L275.938 131.433L261.249 138.642C257.281 135.921 253.172 133.568 248.907 131.543L247.819 115.192L227.423 109.739L218.307 123.335L218.384 123.379C215.983 123.169 213.581 123.056 211.18 123.077C208.779 123.057 206.354 123.179 203.961 123.371L204.045 123.335L194.929 109.739L174.518 115.192L173.425 131.563C169.173 133.552 165.074 135.92 161.093 138.657L146.391 131.44L131.446 146.385L138.665 161.077C135.936 165.053 133.576 169.169 131.543 173.442L115.21 174.512L109.734 194.92L123.33 204.028C123.187 206.381 123.064 208.79 123.082 211.15C123.064 213.559 123.184 215.983 123.387 218.374L123.331 218.297L109.735 227.403L115.195 247.806L131.535 248.912C133.593 253.151 135.91 257.278 138.665 261.249L131.446 275.943L146.391 290.888L161.08 283.671C165.066 286.426 169.185 288.755 173.412 290.79L174.518 307.125L194.929 312.603L204.03 299.002C206.398 299.15 208.799 299.271 211.18 299.243C213.581 299.263 215.99 299.151 218.371 298.977L227.41 312.604L247.834 307.141L248.922 290.818C253.177 288.76 257.28 286.387 261.248 283.66L275.937 290.887L290.905 275.942L283.665 261.235C286.384 257.275 288.77 253.148 290.777 248.896L307.135 247.811L312.601 227.4L299.002 218.294L298.966 218.371C299.148 215.98 299.289 213.571 299.253 211.147C299.289 208.802 299.148 206.378 299.007 204.025L312.598 194.917L307.132 174.509L290.761 173.403C288.767 169.164 286.406 165.047 283.662 161.074L290.906 146.383ZM257.418 257.405C231.882 282.954 190.466 282.954 164.923 257.405C139.387 231.874 139.387 190.456 164.938 164.91C190.466 139.384 231.89 139.384 257.418 164.91C282.954 190.456 282.954 231.875 257.418 257.405Z" fill="#34495E"/>
<path d="M329.889 360.509L360.517 329.866L261.366 230.73L230.746 261.373L329.889 360.509Z" fill="#CEE2F2"/>
<path d="M194.842 159.524L232.753 197.42L225.288 225.28L197.435 232.745L159.521 194.844C153.653 213.476 158.085 234.688 172.861 249.459C194.022 270.62 228.323 270.62 249.484 249.459C270.609 228.308 270.609 194.007 249.484 172.859C234.678 158.09 213.509 153.646 194.842 159.524Z" fill="#F2F9FF"/>
<path d="M338.271 338.263C323.443 353.06 323.277 376.873 337.856 391.455C352.41 406.024 376.23 405.842 391.048 391.03C405.845 376.215 406.021 352.407 391.44 337.833C376.883 323.267 353.08 323.461 338.271 338.263ZM390.464 353.946L386.44 364.639L390.464 375.332L380.063 380.055L375.337 390.454L364.662 386.432L353.971 390.441L349.238 380.055L338.842 375.332L342.866 364.639L338.842 353.946L349.238 349.241L353.971 338.842L364.662 342.851L375.337 338.842L380.063 349.241L390.464 353.946Z" fill="#F2F9FF"/>
</svg>
