<svg width="50" height="50" viewBox="0 0 50 50" fill="none" xmlns="http://www.w3.org/2000/svg">
<path d="M25 50C38.8071 50 50 38.8071 50 25C50 11.1929 38.8071 0 25 0C11.1929 0 0 11.1929 0 25C0 38.8071 11.1929 50 25 50Z" fill="#31FFCE"/>
<path d="M28.408 14.2992L26.9445 12.8357L26.1687 13.2185L24.2025 11.2517L22.208 10.7164L21.3173 12.0462L21.3263 12.0505C21.091 12.0274 20.8558 12.0183 20.6245 12.0235C20.5317 12.0216 20.4393 12.0243 20.3468 12.0272L19.0362 10.7165L17.0415 11.2518L16.9355 12.8492C16.5198 13.0437 16.1181 13.2745 15.7306 13.5422L14.295 12.8356L12.8357 14.2991L13.542 15.7301C13.2742 16.1176 13.0433 16.5198 12.8447 16.9398L11.2519 17.0458L10.7164 19.036L12.0294 20.3488C12.0259 20.4403 12.0182 20.5326 12.0182 20.6238C12.0182 20.8546 12.0274 21.0951 12.0507 21.3258L12.0459 21.321L10.7164 22.2075L11.2474 24.202L13.2171 26.1718L12.8358 26.9445V26.9493L14.2951 28.4078H14.2994L34.1529 48.2636C40.5952 45.727 45.7267 40.5958 48.2635 34.1538L28.408 14.2992Z" fill="#24C3A9"/>
<path d="M28.4088 14.2952L26.9471 12.8353L25.5126 13.5393C25.1251 13.2735 24.7238 13.0438 24.3073 12.846L24.2011 11.2492L22.2093 10.7167L21.319 12.0444L21.3266 12.0487C21.0921 12.0282 20.8575 12.0172 20.6231 12.0192C20.3886 12.0173 20.1518 12.0292 19.9181 12.048L19.9263 12.0444L19.036 10.7167L17.0428 11.2492L16.936 12.848C16.5208 13.0422 16.1205 13.2734 15.7317 13.5407L14.296 12.8359L12.8365 14.2954L13.5415 15.7302C13.275 16.1185 13.0445 16.5204 12.846 16.9377L11.251 17.0422L10.7162 19.0352L12.044 19.9246C12.03 20.1544 12.018 20.3897 12.0197 20.6201C12.018 20.8554 12.0297 21.0921 12.0495 21.3256L12.044 21.3181L10.7163 22.2073L11.2495 24.1998L12.8452 24.3078C13.0462 24.7218 13.2725 25.1248 13.5415 25.5126L12.8365 26.9476L14.296 28.407L15.7305 27.7023C16.1197 27.9713 16.522 28.1987 16.9348 28.3975L17.0428 29.9927L19.036 30.5276L19.9248 29.1994C20.1561 29.2139 20.3905 29.2257 20.6231 29.223C20.8575 29.2249 21.0928 29.214 21.3253 29.197L22.208 30.5277L24.2025 29.9942L24.3088 28.4002C24.7243 28.1992 25.125 27.9675 25.5125 27.7012L26.947 28.4069L28.4087 26.9475L27.7017 25.5112C27.9672 25.1245 28.2002 24.7215 28.3962 24.3063L29.9937 24.2003L30.5274 22.207L29.1994 21.3178L29.1959 21.3253C29.2137 21.0918 29.2274 20.8565 29.2239 20.6198C29.2274 20.3908 29.2137 20.1541 29.1999 19.9243L30.5272 19.0349L29.9934 17.0419L28.3946 16.9339C28.1999 16.5199 27.9693 16.1179 27.7014 15.7299L28.4088 14.2952ZM25.1385 25.1372C22.6447 27.6322 18.6002 27.6322 16.1058 25.1372C13.612 22.644 13.612 18.5992 16.1072 16.1045C18.6002 13.6117 22.6455 13.6117 25.1385 16.1045C27.6322 18.5992 27.6322 22.644 25.1385 25.1372Z" fill="#34495E"/>
<path d="M32.2157 35.206L35.2067 32.2135L25.524 22.5322L22.5338 25.5247L32.2157 35.206Z" fill="#CEE2F2"/>
<path d="M19.0275 15.5785L22.7298 19.2793L22.0008 22L19.2808 22.729L15.5782 19.0277C15.0052 20.8473 15.438 22.9188 16.881 24.3612C18.9475 26.4278 22.2972 26.4278 24.3637 24.3612C26.4266 22.2957 26.4266 18.946 24.3637 16.8808C22.9178 15.4385 20.8505 15.0045 19.0275 15.5785Z" fill="#F2F9FF"/>
<path d="M33.0343 33.0335C31.5862 34.4785 31.57 36.804 32.9937 38.228C34.415 39.6508 36.7412 39.633 38.1883 38.1865C39.6333 36.7397 39.6505 34.4147 38.2266 32.9915C36.805 31.569 34.4805 31.588 33.0343 33.0335ZM38.1312 34.565L37.7383 35.6093L38.1312 36.6535L37.1155 37.1147L36.654 38.1303L35.6115 37.7375L34.5675 38.129L34.1053 37.1147L33.09 36.6535L33.483 35.6093L33.09 34.565L34.1053 34.1056L34.5675 33.09L35.6115 33.4815L36.654 33.09L37.1155 34.1056L38.1312 34.565Z" fill="#F2F9FF"/>
</svg>
