<svg width="192" height="192" viewBox="0 0 192 192" fill="none" xmlns="http://www.w3.org/2000/svg">
<path d="M96 192C149.019 192 192 149.019 192 96C192 42.9807 149.019 0 96 0C42.9807 0 0 42.9807 0 96C0 149.019 42.9807 192 96 192Z" fill="#00FBBF"/>
<path d="M109.087 54.909L103.467 49.2893L100.488 50.7589L92.9378 43.2064L85.2788 41.151L81.8584 46.2574L81.8929 46.2739C80.9895 46.1854 80.0861 46.1501 79.1981 46.1704C78.8419 46.1629 78.4868 46.1734 78.1316 46.1846L73.0991 41.1514L65.4394 43.2068L65.0325 49.341C63.4361 50.088 61.8934 50.9741 60.4054 52.002L54.8929 49.2889L49.2893 54.9086L52.0013 60.4035C50.973 61.8915 50.0861 63.4361 49.3238 65.049L43.2075 65.4559L41.151 73.0984L46.1929 78.1395C46.1794 78.4909 46.1498 78.8453 46.1498 79.1955C46.1498 80.0816 46.1854 81.0053 46.2746 81.891L46.2563 81.8726L41.151 85.2769L43.1899 92.9359L50.7536 100.5L49.2896 103.467V103.485L54.8933 109.086H54.9097L131.147 185.332C155.886 175.592 175.59 155.888 185.332 131.151L109.087 54.909Z" fill="#24C3A9" fill-opacity="0.09"/>
<path d="M109.09 54.8936L103.477 49.2874L97.9684 51.9907C96.4804 50.9704 94.9395 50.088 93.3401 49.3286L92.9321 43.197L85.2836 41.1521L81.8651 46.2506L81.894 46.2671C80.9936 46.1884 80.0929 46.146 79.1925 46.1539C78.2921 46.1464 77.3827 46.1921 76.4854 46.2641L76.5169 46.2506L73.0984 41.1521L65.4442 43.197L65.0344 49.3361C63.4399 50.082 61.9027 50.97 60.4099 51.9964L54.8966 49.29L49.2922 54.8944L51.9994 60.4039C50.976 61.8949 50.091 63.4384 49.3286 65.0407L43.2037 65.442L41.1502 73.095L46.2487 76.5105C46.1951 77.3929 46.149 78.2962 46.1557 79.1812C46.149 80.0846 46.194 80.9936 46.2701 81.8902L46.2491 81.8614L41.1506 85.2761L43.1981 92.9272L49.3256 93.342C50.0974 94.9316 50.9662 96.4792 51.9994 97.9684L49.2922 103.479L54.8966 109.083L60.405 106.377C61.8997 107.41 63.4444 108.283 65.0295 109.046L65.4442 115.172L73.0984 117.226L76.5112 112.126C77.3992 112.181 78.2996 112.227 79.1925 112.216C80.0929 112.224 80.9962 112.182 81.8891 112.116L85.2787 117.226L92.9377 115.178L93.3457 109.057C94.9414 108.285 96.48 107.395 97.968 106.372L103.476 109.083L109.089 103.478L106.374 97.9631C107.394 96.4781 108.289 94.9305 109.041 93.336L115.176 92.9291L117.225 85.275L112.126 81.8602L112.112 81.8891C112.18 80.9925 112.233 80.0891 112.22 79.1801C112.233 78.3007 112.18 77.3917 112.128 76.5094L117.224 73.0939L115.174 65.4409L109.035 65.0261C108.288 63.4365 107.402 61.8926 106.373 60.4027L109.09 54.8936ZM96.5317 96.5269C86.9557 106.108 71.4247 106.108 61.8461 96.5269C52.2701 86.9527 52.2701 71.421 61.8517 61.8412C71.4247 52.269 86.9587 52.269 96.5317 61.8412C106.108 71.421 106.108 86.9531 96.5317 96.5269Z" fill="#34495E"/>
<path d="M123.708 135.191L135.194 123.7L98.0123 86.5237L86.5298 98.0149L123.708 135.191Z" fill="#CEE2F2"/>
<path d="M73.0657 59.8215L87.2824 74.0325L84.483 84.48L74.0381 87.2793L59.8204 73.0665C57.6199 80.0535 59.2819 88.008 64.8229 93.5471C72.7582 101.482 85.6211 101.482 93.5565 93.5471C101.478 85.6155 101.478 72.7526 93.5565 64.8221C88.0042 59.2837 80.0659 57.6172 73.0657 59.8215Z" fill="#F2F9FF"/>
<path d="M126.852 126.849C121.291 132.397 121.229 141.327 126.696 146.796C132.154 152.259 141.086 152.191 146.643 146.636C152.192 141.081 152.258 132.153 146.79 126.687C141.331 121.225 132.405 121.298 126.852 126.849ZM146.424 132.73L144.915 136.74L146.424 140.749L142.524 142.521L140.751 146.42L136.748 144.912L132.739 146.415L130.964 142.521L127.066 140.749L128.575 136.74L127.066 132.73L130.964 130.965L132.739 127.066L136.748 128.569L140.751 127.066L142.524 130.965L146.424 132.73Z" fill="#F2F9FF"/>
</svg>
