<svg width="79" height="79" viewBox="0 0 79 79" fill="none" xmlns="http://www.w3.org/2000/svg">
<g filter="url(#filter0_d)">
<mask id="mask0" mask-type="alpha" maskUnits="userSpaceOnUse" x="13" y="11" width="53" height="53">
<circle cx="39.5" cy="37.5" r="26.5" fill="white"/>
</mask>
<g mask="url(#mask0)">
<rect x="13.0665" y="11" width="52.9336" height="53" rx="26.4668" fill="#32E6C8"/>
<g filter="url(#filter1_d)">
<path d="M50.3482 41.2995C37.5363 41.6287 29.0578 34.3933 26.3177 26.8811C25.1812 23.7654 25.4883 14.4826 22.9715 16.6425C15.9802 22.6425 14.0651 28.3954 14.0652 33.4999C14.0652 38.2323 23.2937 45.2206 31.0317 48.0049C38.7698 50.7892 62.005 40.9999 50.3482 41.2995Z" fill="url(#paint0_linear)"/>
<path d="M50.3483 55.251C41.4019 56.6224 34.5016 52.9278 30.2401 47.8356C25.0114 41.5876 22.1224 22.1672 15.5633 26.9999C11.1545 30.2482 13.5658 43.9999 14.5239 48.5349C14.8438 50.0489 22.0552 59.8529 31.0439 62.4999C42.7103 65.9355 58.5094 53.9999 50.3483 55.251Z" fill="url(#paint1_linear)"/>
<path d="M48.2637 30.9006C39.3622 32.2548 33.0554 27.2334 30.3013 21.7206C28.5792 18.2735 25.6196 13.7181 22.6296 16.1489C14.053 23.1216 20.1545 25.2829 20.2965 25.6973C20.6852 26.8324 26.176 34.4659 33.1932 36.5167C42.3009 39.1784 54.6349 29.9314 48.2637 30.9006Z" fill="url(#paint2_linear)"/>
</g>
</g>
</g>
<defs>
<filter id="filter0_d" x="0" y="0" width="79" height="79" filterUnits="userSpaceOnUse" color-interpolation-filters="sRGB">
<feFlood flood-opacity="0" result="BackgroundImageFix"/>
<feColorMatrix in="SourceAlpha" type="matrix" values="0 0 0 0 0 0 0 0 0 0 0 0 0 0 0 0 0 0 127 0"/>
<feOffset dy="2"/>
<feGaussianBlur stdDeviation="6.5"/>
<feColorMatrix type="matrix" values="0 0 0 0 0 0 0 0 0 0 0 0 0 0 0 0 0 0 0.25 0"/>
<feBlend mode="normal" in2="BackgroundImageFix" result="effect1_dropShadow"/>
<feBlend mode="normal" in="SourceGraphic" in2="effect1_dropShadow" result="shape"/>
</filter>
<filter id="filter1_d" x="9" y="15.4638" width="48.5608" height="55.6598" filterUnits="userSpaceOnUse" color-interpolation-filters="sRGB">
<feFlood flood-opacity="0" result="BackgroundImageFix"/>
<feColorMatrix in="SourceAlpha" type="matrix" values="0 0 0 0 0 0 0 0 0 0 0 0 0 0 0 0 0 0 127 0"/>
<feOffset dy="4"/>
<feGaussianBlur stdDeviation="2"/>
<feColorMatrix type="matrix" values="0 0 0 0 0 0 0 0 0 0 0 0 0 0 0 0 0 0 0.25 0"/>
<feBlend mode="normal" in2="BackgroundImageFix" result="effect1_dropShadow"/>
<feBlend mode="normal" in="SourceGraphic" in2="effect1_dropShadow" result="shape"/>
</filter>
<linearGradient id="paint0_linear" x1="18.8802" y1="24.5937" x2="53.8219" y2="44.2891" gradientUnits="userSpaceOnUse">
<stop stop-color="#FFA75C"/>
<stop offset="1" stop-color="#ADA3FF"/>
</linearGradient>
<linearGradient id="paint1_linear" x1="18.88" y1="38.5452" x2="53.8217" y2="58.2405" gradientUnits="userSpaceOnUse">
<stop stop-color="#FFA75C"/>
<stop offset="1" stop-color="#ADA3FF"/>
</linearGradient>
<linearGradient id="paint2_linear" x1="23.6973" y1="17.9578" x2="50.8747" y2="33.394" gradientUnits="userSpaceOnUse">
<stop stop-color="#FFA75C"/>
<stop offset="1" stop-color="#ADA3FF"/>
</linearGradient>
</defs>
</svg>
